<?xml version="1.0" encoding="utf-8"?>
<!-- Generator: Adobe Illustrator 18.1.1, SVG Export Plug-In . SVG Version: 6.00 Build 0)  -->
<svg version="1.1" id="Layer_1" xmlns="http://www.w3.org/2000/svg" xmlns:xlink="http://www.w3.org/1999/xlink" x="0px" y="0px"
	 viewBox="0 0 792 612" enable-background="new 0 0 792 612" xml:space="preserve">
<g>
	<g>
		<path fill="#FFFFFF" d="M340,341.5c-1.9,0-2.8-0.9-2.8-2.7v-10c0-1.9,0.9-2.9,2.8-2.9h6.9v3.9h-5.5c-0.4,0-0.6,0.2-0.6,0.6v6.5
			c0,0.4,0.2,0.6,0.6,0.6h5.5v3.9H340z"/>
		<path fill="#FFFFFF" d="M351.8,341.5c-1.9,0-2.9-0.9-2.9-2.7v-6.5c0-1.9,0.9-2.8,2.8-2.8h5.3c1.9,0,2.8,1,2.8,2.9v6.4
			c0,1.9-0.9,2.8-2.8,2.8H351.8z M356.3,333.7c0-0.4-0.2-0.6-0.6-0.6h-2.6c-0.4,0-0.6,0.2-0.6,0.6v3.7c0,0.4,0.2,0.7,0.6,0.7h2.6
			c0.4,0,0.6-0.2,0.6-0.6V333.7z"/>
		<path fill="#FFFFFF" d="M369.6,341.5v-7.9c0-0.4-0.2-0.6-0.6-0.6h-2.5c-0.4,0-0.6,0.2-0.6,0.6v7.9h-3.6v-9.2
			c0-1.9,0.9-2.8,2.8-2.8h5.2c1.9,0,2.8,1,2.8,2.9v9.2H369.6z"/>
		<path fill="#FFFFFF" d="M378.5,341.5c-1.9,0-2.9-0.9-2.9-2.7v-6.5c0-1.9,0.9-2.8,2.8-2.8h4.6v-3.6h3.6v15.6H378.5z M383,333.1
			h-3.2c-0.4,0-0.6,0.2-0.6,0.6v3.7c0,0.4,0.2,0.7,0.6,0.7h3.2V333.1z"/>
		<path fill="#FFFFFF" d="M392.1,341.5c-1.9,0-2.9-0.9-2.9-2.7v-9.3h3.6v7.9c0,0.4,0.2,0.7,0.6,0.7h2.4c0.4,0,0.6-0.2,0.6-0.6v-7.9
			h3.5v9.3c0,1.9-0.9,2.8-2.8,2.8H392.1z"/>
		<path fill="#FFFFFF" d="M405.3,341.5c-1.9,0-2.9-0.9-2.9-2.7v-6.5c0-1.9,0.9-2.8,2.8-2.8h6v3.6h-4.7c-0.4,0-0.6,0.2-0.6,0.6v3.7
			c0,0.4,0.2,0.7,0.6,0.7h4.7v3.6H405.3z"/>
		<path fill="#FFFFFF" d="M416.5,341.5c-2,0-2.9-0.9-2.9-2.7v-12.8h3.6v3.5h2.8v3.2h-2.8v4.4c0,0.5,0.2,0.7,0.5,0.7h2.2v3.6H416.5z"
			/>
		<path fill="#FFFFFF" d="M424.9,341.5c-1.9,0-2.9-0.9-2.9-2.8v-6.4c0-1.9,0.9-2.8,2.8-2.8h5.5c1.8,0,2.6,0.9,2.6,2.8v1.8
			c0,1.9-0.9,2.8-2.6,2.8h-4.1c-0.2,0-0.5,0-0.6-0.1v0.9c0,0.4,0.2,0.6,0.6,0.6h6.2v3.4H424.9z M429.4,333.2c0-0.3-0.1-0.4-0.4-0.4
			h-3c-0.3,0-0.4,0.1-0.4,0.4v0.8c0,0.3,0.1,0.4,0.4,0.4h3c0.3,0,0.4-0.1,0.4-0.4V333.2z"/>
		<path fill="#FFFFFF" d="M438.2,341.5c-1.9,0-2.9-0.9-2.9-2.7v-9.3h3.6v7.9c0,0.4,0.2,0.7,0.6,0.7h2.4c0.4,0,0.6-0.2,0.6-0.6v-7.9
			h3.5v9.3c0,1.9-0.9,2.8-2.8,2.8H438.2z"/>
		<path fill="#FFFFFF" d="M448.7,341.5v-9.2c0-0.9,0.2-1.7,0.7-2.1c0.5-0.5,1.2-0.7,2.2-0.7h4v3.6h-2.6c-0.4,0-0.6,0.2-0.6,0.6v7.9
			H448.7z"/>
	</g>
</g>
<g>
	<g>
		<path fill="#2D4049" d="M355.2,285.7c0.4-2.4,2-3.9,3.8-5.3c3.6-3,7.8-5.1,11.8-7.4c2.8-1.6,5.6-2.2,8.8-2.1
			c6.1,0.2,12.1,0,18.2,0.1c0.6,0,1.2,0.2,1.7,0.5c4.3,2.5,8.5,5.1,12.8,7.6c1.2,0.7,2.7,0.9,4,1.2c5.6,1.3,11.1,2.5,16.7,3.8
			c0.6,0.1,1.2,0.6,1.5,1.1c1.5,2.3,2.6,4.7,3.1,7.4c0,0.1,0.1,0.2,0.1,0.4c0,0.8,0,1.6,0,2.4c-0.1,0.2-0.1,0.4-0.2,0.6
			c-0.4,1.5-1.3,2.5-2.8,2.7c-1.2,0.2-2.5,0.3-3.8,0.5c-0.1,3-1.3,5.5-3.8,7.4c-1.8,1.3-3.8,1.8-6,1.8c-4.6-0.1-7.6-3.1-8.9-8.7
			c-9.7,0-19.4,0-29.2,0c-0.5,2.5-1.6,4.6-3.6,6.1c-1.6,1.2-3.3,1.7-5.3,1.7c-3.6,0-7.8-2.3-9-7.4c-2.1,0-4.3,0-6.4,0
			c-1.4,0-1.9-0.4-2.2-1.7c-0.4-2.6-0.8-5.2-1.2-7.8c0-0.3-0.1-0.5-0.1-0.8C355.2,288.2,355.2,286.9,355.2,285.7z M365.1,296.5
			c0.1-0.3,0.1-0.4,0.2-0.6c1.1-4,4.5-6.7,8.5-6.8c3.9-0.1,7.5,2.5,8.7,6.3c0.2,0.6,0.4,0.7,1,0.7c9.4,0,18.9,0,28.3,0
			c0.6,0,0.8-0.2,1.1-0.7c1.5-3.3,4.1-5.2,7.7-5.5c3.5-0.3,6.5,1,8.3,3.9c1,1.6,2.1,1.9,3.7,1.6c0,0,0.1,0,0.1,0
			c1.5-0.1,1.8-0.5,1.6-2c0-0.1,0-0.2-0.1-0.3c-0.4-2.1-1.3-3.9-2.3-5.7c-0.1-0.3-0.5-0.4-0.8-0.5c-3-0.7-6-1.4-9.1-2
			c-2.6-0.5-5.2-1.4-7.9-1.3c-17.8,0.1-35.5,0-53.3,0c-0.3,0-0.6,0-0.7,0.1c-1,0.9-1.8,1.8-1.7,3.3c0.3,3,0.7,6,1.1,8.9
			c0,0.2,0.3,0.5,0.5,0.5C361.8,296.5,363.4,296.5,365.1,296.5z M382.8,280.2c8.3,0,16.5,0,25,0c-0.3-0.2-0.4-0.3-0.5-0.3
			c-3-1.8-6-3.6-9-5.4c-0.3-0.2-0.7-0.3-1.1-0.3c-4.6,0-9.1,0-13.7,0c-0.2,0-0.5,0-0.7,0.1C382.8,276.3,382.8,278.2,382.8,280.2z
			 M421.5,304.8c3.3,0,5.9-2.6,5.9-5.8c0-3.3-2.7-5.8-6-5.8c-3.2,0-5.9,2.6-5.9,5.8C415.5,302.2,418.2,304.9,421.5,304.8z
			 M379.7,298.2c0-3.2-2.4-5.8-5.6-5.8c-3.1-0.1-5.7,2.5-5.8,5.5c-0.1,3.4,2.4,6,5.7,6C377.1,303.9,379.7,301.4,379.7,298.2z
			 M379.2,280.2c0-2,0-4,0-6.1c-1.4,0.1-2.8-0.1-3.9,0.5c-3.3,1.6-6.4,3.4-9.6,5.1c-0.2,0.1-0.4,0.3-0.8,0.5
			C369.8,280.2,374.5,280.2,379.2,280.2z"/>
	</g>
</g>
</svg>
