<?xml version="1.0" encoding="utf-8"?>
<!-- Generator: Adobe Illustrator 18.1.1, SVG Export Plug-In . SVG Version: 6.00 Build 0)  -->
<svg version="1.1" id="Layer_1" xmlns="http://www.w3.org/2000/svg" xmlns:xlink="http://www.w3.org/1999/xlink" x="0px" y="0px"
	 viewBox="0 0 792 612" enable-background="new 0 0 792 612" xml:space="preserve">
<g>
	<path fill="#77E3BF" d="M318.7,346.6v-8.7h-6.3v8.7h-5.1V324h5.1v8.7h6.3V324h5.1v22.6H318.7z"/>
	<path fill="#77E3BF" d="M328.7,327.7c-0.7,0-1.1-0.4-1.1-1.2v-2c0-0.8,0.4-1.2,1.2-1.2h2.8c0.8,0,1.1,0.4,1.1,1.2v2
		c0,0.8-0.4,1.2-1.1,1.2H328.7z M327.6,346.6v-17.4h5.1v17.4H327.6z"/>
	<path fill="#77E3BF" d="M340.8,346.6c-2.8,0-4.2-1.3-4.2-3.8v-18.4h5.1v5h4v4.7h-4v6.4c0,0.7,0.3,1,0.8,1h3.2v5.1H340.8z"/>
	<path fill="#77E3BF" d="M352.9,346.6c-2.8,0-4.2-1.3-4.2-4v-9.4c0-2.7,1.4-4.1,4.1-4.1h8.7v5.2h-6.8c-0.6,0-0.9,0.3-0.9,0.9v5.3
		c0,0.6,0.3,1,0.9,1h6.8v5.1H352.9z"/>
	<path fill="#77E3BF" d="M375.3,346.6v-11.4c0-0.6-0.3-0.9-0.9-0.9H370v12.3h-5.1V324h5.1v5.1h6.4c2.7,0,4.1,1.4,4.1,4.1v13.3H375.3
		z"/>
	<path fill="#2D4049" d="M395.7,346.6v-8.7h-6.3v8.7h-5.1V324h5.1v8.7h6.3V324h5.1v22.6H395.7z"/>
	<path fill="#2D4049" d="M408.1,346.6c-2.5,0-3.8-1.3-3.8-4V340c0-2.7,1.3-4,3.8-4h5.9c0.3,0,0.7,0.1,1,0.2v-1.3
		c0-0.6-0.3-0.9-0.9-0.9H405v-4.9h10.9c2.8,0,4.2,1.4,4.2,4.1v9.2c0,2.7-1.3,4.1-4,4.1H408.1z M414.9,340c0-0.4-0.2-0.6-0.6-0.6H410
		c-0.4,0-0.6,0.2-0.6,0.6v1.2c0,0.4,0.2,0.6,0.6,0.6h4.3c0.4,0,0.6-0.2,0.6-0.6V340z"/>
	<path fill="#2D4049" d="M427.8,346.6c-2.8,0-4.2-1.3-4.2-4v-9.4c0-2.7,1.4-4.1,4.1-4.1h8.7v5.2h-6.8c-0.6,0-0.9,0.3-0.9,0.9v5.3
		c0,0.6,0.3,1,0.9,1h6.8v5.1H427.8z"/>
	<path fill="#2D4049" d="M449.4,346.6l-4.5-8.3v8.3h-5.1V324h5.1v11.8l4.2-6.6h5.6l-4.8,7.4l5.8,10.1H449.4z"/>
	<path fill="#2D4049" d="M457.8,346.6v-5.7h8.7c0.6,0,0.9-0.3,0.9-0.9v-1.6c0-0.6-0.3-0.9-0.9-0.9h-8.4V333h8.4
		c0.6,0,0.9-0.3,0.9-0.9v-1.5c0-0.6-0.3-0.9-0.9-0.9H458V324h10.4c2.7,0,4.1,1.4,4.1,4.2v3.6c0,2-0.8,3.2-2.5,3.5
		c0.9,0.2,1.5,0.6,1.9,1.1c0.4,0.5,0.6,1.2,0.6,2.1v3.9c0,2.8-1.4,4.2-4.1,4.2H457.8z"/>
	<path fill="#2D4049" d="M476.2,346.6v-13.3c0-1.4,0.3-2.4,1-3.1s1.7-1,3.1-1h5.8v5.1h-3.8c-0.6,0-0.9,0.3-0.9,0.9v11.4H476.2z"/>
</g>
<g>
	<path fill="#2D4049" d="M419,281.8c-0.2-0.1-0.4-0.2-0.7-0.3c0.4-1.4,0.4-2.7-0.4-4c-0.7-1.2-1.9-1.9-3.3-2.2c0.2-1.5,0-2.9-1-4
		c-1-1.2-2.3-1.6-3.8-1.6c0-0.3,0-0.5-0.1-0.7c-0.3-2.5-2.3-4.2-4.8-3.9c-0.9,0.1-1.9,0.6-2.6,1.2c-2.7,2.2-5.4,4.5-8,6.7
		c-1.4,1.2-2.8,2.4-4.3,3.6c-1.6-2.2-3.1-4.5-4.8-6.5c-1.2-1.4-2.5-2.7-4-3.7c-3.1-2.1-6.6-1.6-9.3,1.1c-0.6,0.5-0.6,1.1-0.1,1.7
		c0.2,0.3,0.5,0.5,0.7,0.8c2.7,3.3,5.9,6.3,7.3,10.4c1,2.8,1.5,5.7,0,8.6c-0.3,0.6-0.3,1.1,0.3,1.5c0.6,0.4,1.2,0.1,1.5-0.5
		c0.4-0.8,0.7-1.6,0.9-2.4c0.9-4.8-0.8-9-3.4-12.9c-1.5-2.2-3.4-4.1-5.1-6.2c1.2-1.1,2.6-1.5,4.1-1.2c2.3,0.5,4,2,5.4,3.9
		c1.8,2.4,3.5,4.8,5.2,7.2c1,1.4,2,2.8,2.2,4.5c0,0.3,0.7,0.8,1,0.8c0.3,0,0.9-0.6,0.9-1c0-0.7-0.2-1.5-0.4-2.2
		c-0.3-0.8-0.7-1.5-1.1-2.3c0.9-0.7,1.7-1.4,2.6-2.2c0.6,2.3,2,3.6,4.2,3.8c0,3.3,1.1,4.6,4.4,5.4c0.1,3.1,1.3,4.5,4.2,5.1
		c-0.2,2.3,0.7,4,3,5.1c-3.6,3-7.5,5.3-11.8,6.8c-1.6,0.5-3,1.4-4.5,2.1c-0.6,0.3-1.1,0.8-0.5,1.5c0.5,0.7,1.1,0.5,1.7,0.1
		c1-0.6,2.1-1.2,3.2-1.6c3.5-1.2,7-2.6,9.9-4.9c4.3-3.4,8.5-6.8,12.6-10.3C423,287,422.1,282.9,419,281.8z M398.4,278
		c-1-0.1-1.9-0.8-2.2-1.7c-0.3-0.9-0.2-1.9,0.6-2.5c2.4-2.1,4.8-4.1,7.3-6.1c1.1-0.9,2.4-0.7,3.3,0.3c0.9,1.1,0.8,2.4-0.3,3.4
		c-2.3,2-4.6,3.9-6.9,5.8C399.6,277.5,399,277.7,398.4,278z M402.9,283.1c-1.3,0-2.1-0.6-2.5-1.5c-0.4-1-0.2-1.9,0.7-2.6
		c2-1.7,3.9-3.3,5.9-5c0.6-0.5,1.2-1.1,1.9-1.6c1.1-0.8,2.5-0.7,3.3,0.3c0.8,1,0.8,2.4-0.3,3.3c-2.6,2.2-5.2,4.4-7.8,6.6
		C403.7,282.9,403.1,283,402.9,283.1z M407.1,288.3c-1-0.1-1.8-0.7-2.2-1.6c-0.4-0.9-0.3-1.9,0.5-2.5c2.4-2.1,4.9-4.2,7.4-6.2
		c1-0.8,2.4-0.6,3.2,0.4c0.8,1,0.8,2.4-0.3,3.3c-2.4,2-4.7,4-7.2,6C408.2,287.9,407.6,288,407.1,288.3z M419,287.7
		c-1.2,1-2.4,2-3.6,3c-0.8,0.7-1.7,1.4-2.5,2.1c-1.1,0.9-2.5,0.8-3.4-0.2c-0.9-1-0.8-2.4,0.3-3.3c2.1-1.8,4.1-3.5,6.2-5.2
		c0.4-0.3,1-0.5,1.5-0.7c1,0.1,1.8,0.7,2.2,1.6C420.1,285.9,419.8,287,419,287.7z"/>
</g>
</svg>
