<?xml version="1.0" encoding="utf-8"?>
<!-- Generator: Adobe Illustrator 18.1.1, SVG Export Plug-In . SVG Version: 6.00 Build 0)  -->
<svg version="1.1" id="Layer_1" xmlns="http://www.w3.org/2000/svg" xmlns:xlink="http://www.w3.org/1999/xlink" x="0px" y="0px"
	 viewBox="0 0 792 612" enable-background="new 0 0 792 612" xml:space="preserve">
<g>
	<path fill="#77E3BF" d="M342.6,319.8v-10.2h-7.3v10.2h-6v-26.4h6v10.2h7.3v-10.2h6v26.4H342.6z"/>
	<path fill="#77E3BF" d="M354.3,297.7c-0.8,0-1.3-0.5-1.3-1.4V294c0-0.9,0.5-1.4,1.4-1.4h3.3c0.9,0,1.3,0.5,1.3,1.4v2.3
		c0,0.9-0.4,1.4-1.3,1.4H354.3z M353,319.8v-20.4h6v20.4H353z"/>
	<path fill="#77E3BF" d="M368.5,319.8c-3.3,0-5-1.5-5-4.5v-21.6h6v5.9h4.7v5.5h-4.7v7.5c0,0.8,0.3,1.2,0.9,1.2h3.8v6H368.5z"/>
	<path fill="#77E3BF" d="M382.6,319.8c-3.2,0-4.9-1.5-4.9-4.6v-11c0-3.2,1.6-4.8,4.8-4.8h10.2v6h-7.9c-0.7,0-1,0.3-1,1v6.2
		c0,0.7,0.3,1.1,1,1.1h8v6H382.6z"/>
	<path fill="#77E3BF" d="M408.9,319.8v-13.3c0-0.7-0.3-1-1-1h-5.2v14.4h-6v-26.4h6v6h7.5c3.2,0,4.8,1.6,4.8,4.8v15.6H408.9z"/>
	<path fill="#2D4049" d="M432.7,319.8v-10.2h-7.3v10.2h-6v-26.4h6v10.2h7.3v-10.2h6v26.4H432.7z"/>
	<path fill="#2D4049" d="M447.3,319.8c-3,0-4.4-1.5-4.4-4.6v-3c0-3.2,1.5-4.7,4.4-4.7h6.8c0.4,0,0.8,0.1,1.1,0.2v-1.5
		c0-0.7-0.3-1-1-1h-10.6v-5.7h12.8c3.2,0,4.9,1.6,4.9,4.8V315c0,3.2-1.6,4.8-4.7,4.8H447.3z M455.3,312.1c0-0.5-0.2-0.7-0.7-0.7
		h-5.1c-0.5,0-0.7,0.2-0.7,0.7v1.4c0,0.5,0.2,0.7,0.7,0.7h5.1c0.5,0,0.7-0.2,0.7-0.7V312.1z"/>
	<path fill="#2D4049" d="M470.3,319.8c-3.2,0-4.9-1.5-4.9-4.6v-11c0-3.2,1.6-4.8,4.8-4.8h10.2v6h-7.9c-0.7,0-1,0.3-1,1v6.2
		c0,0.7,0.3,1.1,1,1.1h8v6H470.3z"/>
	<path fill="#2D4049" d="M495.6,319.8l-5.3-9.8v9.8h-6v-26.4h6v13.8l4.9-7.8h6.5l-5.6,8.6l6.8,11.8H495.6z"/>
	<path fill="#2D4049" d="M505.5,319.8v-6.6h10.2c0.7,0,1-0.3,1-1v-1.8c0-0.7-0.3-1-1-1h-9.9v-5.3h9.9c0.7,0,1-0.3,1-1V301
		c0-0.7-0.3-1-1-1h-10v-6.6h12.2c3.2,0,4.8,1.6,4.8,4.9v4.2c0,2.4-1,3.8-2.9,4.1c1,0.2,1.8,0.7,2.3,1.3c0.5,0.6,0.7,1.5,0.7,2.5v4.5
		c0,3.3-1.6,4.9-4.8,4.9H505.5z"/>
	<path fill="#2D4049" d="M527,319.8v-15.6c0-1.6,0.4-2.8,1.1-3.6c0.8-0.8,2-1.2,3.7-1.2h6.7v6h-4.4c-0.7,0-1,0.3-1,1v13.3H527z"/>
</g>
<g>
	<path fill="#2D4049" d="M316.2,300.7c-0.3-0.1-0.6-0.2-0.9-0.3c0.5-1.8,0.5-3.5-0.5-5.1c-1-1.6-2.4-2.4-4.2-2.8
		c0.3-1.9,0-3.7-1.3-5.2c-1.3-1.5-3-2-4.9-2.1c0-0.4-0.1-0.6-0.1-0.9c-0.4-3.2-3-5.5-6.1-5c-1.2,0.2-2.4,0.7-3.4,1.5
		c-3.5,2.8-6.9,5.8-10.3,8.7c-1.8,1.5-3.6,3.1-5.5,4.6c-2.1-2.9-4-5.8-6.2-8.4c-1.5-1.8-3.2-3.5-5.1-4.8c-4-2.7-8.5-2-11.9,1.4
		c-0.7,0.7-0.7,1.4-0.2,2.1c0.3,0.3,0.6,0.7,0.9,1c3.5,4.2,7.5,8.1,9.4,13.4c1.3,3.7,2,7.4,0,11.1c-0.4,0.8-0.4,1.4,0.4,1.9
		c0.8,0.5,1.5,0.2,1.9-0.6c0.5-1,0.9-2,1.1-3.1c1.2-6.2-1.1-11.6-4.3-16.6c-1.9-2.8-4.4-5.3-6.6-8c1.6-1.4,3.3-2,5.3-1.6
		c3,0.7,5.2,2.6,7,5c2.3,3,4.5,6.1,6.7,9.2c1.3,1.8,2.5,3.5,2.8,5.8c0.1,0.4,0.9,1.1,1.3,1.1c0.4,0,1.1-0.8,1.1-1.2
		c0-0.9-0.2-1.9-0.6-2.8c-0.4-1-1-1.9-1.5-3c1.1-0.9,2.2-1.8,3.4-2.8c0.8,3,2.6,4.6,5.5,4.9c0,4.2,1.4,5.9,5.7,6.9
		c0.1,3.9,1.6,5.8,5.4,6.5c-0.3,3,0.9,5.2,3.8,6.5c-4.7,3.8-9.6,6.8-15.2,8.7c-2,0.7-3.9,1.8-5.8,2.7c-0.7,0.4-1.4,1.1-0.7,2
		c0.6,0.8,1.4,0.7,2.2,0.2c1.3-0.8,2.7-1.5,4.1-2c4.6-1.5,9-3.4,12.8-6.4c5.5-4.3,10.9-8.8,16.3-13.3
		C321.4,307.4,320.2,302.2,316.2,300.7z M289.7,295.8c-1.3-0.2-2.4-1-2.9-2.2c-0.5-1.1-0.2-2.4,0.7-3.2c3.1-2.7,6.2-5.3,9.4-7.9
		c1.4-1.1,3.2-0.9,4.2,0.4c1.1,1.4,1,3.1-0.4,4.3c-3,2.5-5.9,5-8.9,7.5C291.2,295.2,290.4,295.4,289.7,295.8z M295.5,302.4
		c-1.6,0-2.7-0.7-3.2-1.9c-0.5-1.2-0.2-2.5,0.8-3.4c2.5-2.2,5.1-4.3,7.6-6.4c0.8-0.7,1.6-1.4,2.4-2c1.4-1.1,3.2-0.9,4.2,0.4
		c1.1,1.3,1,3.1-0.3,4.2c-3.3,2.8-6.7,5.7-10,8.4C296.5,302.1,295.8,302.3,295.5,302.4z M300.9,309.1c-1.3-0.2-2.4-0.9-2.8-2
		c-0.5-1.2-0.4-2.4,0.6-3.2c3.1-2.7,6.3-5.4,9.6-8c1.3-1,3.2-0.7,4.1,0.5c1.1,1.3,1,3-0.4,4.2c-3,2.6-6.1,5.2-9.2,7.7
		C302.3,308.6,301.5,308.8,300.9,309.1z M316.2,308.4c-1.5,1.3-3.1,2.6-4.6,3.9c-1.1,0.9-2.2,1.8-3.3,2.7c-1.4,1.2-3.2,1-4.3-0.3
		c-1.1-1.3-1-3.1,0.4-4.3c2.6-2.3,5.3-4.5,8-6.7c0.5-0.4,1.3-0.6,1.9-0.9c1.3,0.2,2.4,0.9,2.8,2C317.6,306,317.3,307.4,316.2,308.4z
		"/>
</g>
</svg>
