<?xml version="1.0" encoding="utf-8"?>
<!-- Generator: Adobe Illustrator 18.1.1, SVG Export Plug-In . SVG Version: 6.00 Build 0)  -->
<svg version="1.1" id="Layer_1" xmlns="http://www.w3.org/2000/svg" xmlns:xlink="http://www.w3.org/1999/xlink" x="0px" y="0px"
	 viewBox="0 0 792 612" enable-background="new 0 0 792 612" xml:space="preserve">
<rect x="284.3" y="108.1" fill="none" stroke="#2D4049" stroke-miterlimit="10" width="228.9" height="396"/>
<g>
	<path fill="#77E3BF" d="M320.7,257.6v-8.7h-6.3v8.7h-5.1V235h5.1v8.7h6.3V235h5.1v22.6H320.7z"/>
	<path fill="#77E3BF" d="M330.7,238.7c-0.7,0-1.1-0.4-1.1-1.2v-2c0-0.8,0.4-1.2,1.2-1.2h2.8c0.8,0,1.1,0.4,1.1,1.2v2
		c0,0.8-0.4,1.2-1.1,1.2H330.7z M329.6,257.6v-17.4h5.1v17.4H329.6z"/>
	<path fill="#77E3BF" d="M342.8,257.6c-2.8,0-4.2-1.3-4.2-3.8v-18.4h5.1v5h4v4.7h-4v6.4c0,0.7,0.3,1,0.8,1h3.2v5.1H342.8z"/>
	<path fill="#77E3BF" d="M354.9,257.6c-2.8,0-4.2-1.3-4.2-4v-9.4c0-2.7,1.4-4.1,4.1-4.1h8.7v5.2h-6.8c-0.6,0-0.9,0.3-0.9,0.9v5.3
		c0,0.6,0.3,1,0.9,1h6.8v5.1H354.9z"/>
	<path fill="#77E3BF" d="M377.3,257.6v-11.4c0-0.6-0.3-0.9-0.9-0.9H372v12.3h-5.1V235h5.1v5.1h6.4c2.7,0,4.1,1.4,4.1,4.1v13.3H377.3
		z"/>
	<path fill="#2D4049" d="M397.7,257.6v-8.7h-6.3v8.7h-5.1V235h5.1v8.7h6.3V235h5.1v22.6H397.7z"/>
	<path fill="#2D4049" d="M410.1,257.6c-2.5,0-3.8-1.3-3.8-4V251c0-2.7,1.3-4,3.8-4h5.9c0.3,0,0.7,0.1,1,0.2v-1.3
		c0-0.6-0.3-0.9-0.9-0.9H407v-4.9h10.9c2.8,0,4.2,1.4,4.2,4.1v9.2c0,2.7-1.3,4.1-4,4.1H410.1z M416.9,251c0-0.4-0.2-0.6-0.6-0.6H412
		c-0.4,0-0.6,0.2-0.6,0.6v1.2c0,0.4,0.2,0.6,0.6,0.6h4.3c0.4,0,0.6-0.2,0.6-0.6V251z"/>
	<path fill="#2D4049" d="M429.8,257.6c-2.8,0-4.2-1.3-4.2-4v-9.4c0-2.7,1.4-4.1,4.1-4.1h8.7v5.2h-6.8c-0.6,0-0.9,0.3-0.9,0.9v5.3
		c0,0.6,0.3,1,0.9,1h6.8v5.1H429.8z"/>
	<path fill="#2D4049" d="M451.4,257.6l-4.5-8.3v8.3h-5.1V235h5.1v11.8l4.2-6.6h5.6l-4.8,7.4l5.8,10.1H451.4z"/>
	<path fill="#2D4049" d="M459.8,257.6v-5.7h8.7c0.6,0,0.9-0.3,0.9-0.9v-1.6c0-0.6-0.3-0.9-0.9-0.9h-8.4V244h8.4
		c0.6,0,0.9-0.3,0.9-0.9v-1.5c0-0.6-0.3-0.9-0.9-0.9H460V235h10.4c2.7,0,4.1,1.4,4.1,4.2v3.6c0,2-0.8,3.2-2.5,3.5
		c0.9,0.2,1.5,0.6,1.9,1.1c0.4,0.5,0.6,1.2,0.6,2.1v3.9c0,2.8-1.4,4.2-4.1,4.2H459.8z"/>
	<path fill="#2D4049" d="M478.2,257.6v-13.3c0-1.4,0.3-2.4,1-3.1s1.7-1,3.1-1h5.8v5.1h-3.8c-0.6,0-0.9,0.3-0.9,0.9v11.4H478.2z"/>
</g>
<g>
	<path fill="#2D4049" d="M421,192.8c-0.2-0.1-0.4-0.2-0.7-0.3c0.4-1.4,0.4-2.7-0.4-4c-0.7-1.2-1.9-1.9-3.3-2.2c0.2-1.5,0-2.9-1-4
		c-1-1.2-2.3-1.6-3.8-1.6c0-0.3,0-0.5-0.1-0.7c-0.3-2.5-2.3-4.2-4.8-3.9c-0.9,0.1-1.9,0.6-2.6,1.2c-2.7,2.2-5.4,4.5-8,6.7
		c-1.4,1.2-2.8,2.4-4.3,3.6c-1.6-2.2-3.1-4.5-4.8-6.5c-1.2-1.4-2.5-2.7-4-3.7c-3.1-2.1-6.6-1.6-9.3,1.1c-0.6,0.5-0.6,1.1-0.1,1.7
		c0.2,0.3,0.5,0.5,0.7,0.8c2.7,3.3,5.9,6.3,7.3,10.4c1,2.8,1.5,5.7,0,8.6c-0.3,0.6-0.3,1.1,0.3,1.5c0.6,0.4,1.2,0.1,1.5-0.5
		c0.4-0.8,0.7-1.6,0.9-2.4c0.9-4.8-0.8-9-3.4-12.9c-1.5-2.2-3.4-4.1-5.1-6.2c1.2-1.1,2.6-1.5,4.1-1.2c2.3,0.5,4,2,5.4,3.9
		c1.8,2.4,3.5,4.8,5.2,7.2c1,1.4,2,2.8,2.2,4.5c0,0.3,0.7,0.8,1,0.8c0.3,0,0.9-0.6,0.9-1c0-0.7-0.2-1.5-0.4-2.2
		c-0.3-0.8-0.7-1.5-1.1-2.3c0.9-0.7,1.7-1.4,2.6-2.2c0.6,2.3,2,3.6,4.2,3.8c0,3.3,1.1,4.6,4.4,5.4c0.1,3.1,1.3,4.5,4.2,5.1
		c-0.2,2.3,0.7,4,3,5.1c-3.6,3-7.5,5.3-11.8,6.8c-1.6,0.5-3,1.4-4.5,2.1c-0.6,0.3-1.1,0.8-0.5,1.5c0.5,0.7,1.1,0.5,1.7,0.1
		c1-0.6,2.1-1.2,3.2-1.6c3.5-1.2,7-2.6,9.9-4.9c4.3-3.4,8.5-6.8,12.6-10.3C425,198,424.1,193.9,421,192.8z M400.4,189
		c-1-0.1-1.9-0.8-2.2-1.7c-0.3-0.9-0.2-1.9,0.6-2.5c2.4-2.1,4.8-4.1,7.3-6.1c1.1-0.9,2.4-0.7,3.3,0.3c0.9,1.1,0.8,2.4-0.3,3.4
		c-2.3,2-4.6,3.9-6.9,5.8C401.6,188.5,401,188.7,400.4,189z M404.9,194.1c-1.3,0-2.1-0.6-2.5-1.5c-0.4-1-0.2-1.9,0.7-2.6
		c2-1.7,3.9-3.3,5.9-5c0.6-0.5,1.2-1.1,1.9-1.6c1.1-0.8,2.5-0.7,3.3,0.3c0.8,1,0.8,2.4-0.3,3.3c-2.6,2.2-5.2,4.4-7.8,6.6
		C405.7,193.9,405.1,194,404.9,194.1z M409.1,199.3c-1-0.1-1.8-0.7-2.2-1.6c-0.4-0.9-0.3-1.9,0.5-2.5c2.4-2.1,4.9-4.2,7.4-6.2
		c1-0.8,2.4-0.6,3.2,0.4c0.8,1,0.8,2.4-0.3,3.3c-2.4,2-4.7,4-7.2,6C410.2,198.9,409.6,199,409.1,199.3z M421,198.7
		c-1.2,1-2.4,2-3.6,3c-0.8,0.7-1.7,1.4-2.5,2.1c-1.1,0.9-2.5,0.8-3.4-0.2c-0.9-1-0.8-2.4,0.3-3.3c2.1-1.8,4.1-3.5,6.2-5.2
		c0.4-0.3,1-0.5,1.5-0.7c1,0.1,1.8,0.7,2.2,1.6C422.1,196.9,421.8,198,421,198.7z"/>
</g>
<rect x="285" y="303.6" fill="#77E3BF" width="228" height="199.7"/>
<g>
	<defs>
		<rect id="SVGID_1_" x="285" y="303.6" width="228" height="199.7"/>
	</defs>
	<clipPath id="SVGID_2_">
		<use xlink:href="#SVGID_1_"  overflow="visible"/>
	</clipPath>
	<g clip-path="url(#SVGID_2_)">
		<polygon points="322.9,326.1 309,315.1 309,323.4 276.7,323.4 276.7,328.7 309,328.7 309,337 		"/>
		<polygon points="371.7,379.3 362.9,372.4 362.9,377.6 342.4,377.6 342.4,381 362.9,381 362.9,386.2 		"/>
		<polygon points="472.5,379.3 463.7,372.4 463.7,377.6 443.2,377.6 443.2,381 463.7,381 463.7,386.2 		"/>
		<polygon points="419.4,326.1 405.5,315.1 405.5,323.4 373.2,323.4 373.2,328.7 405.5,328.7 405.5,337 		"/>
		<polygon points="515.8,326.1 501.9,315.1 501.9,323.4 469.6,323.4 469.6,328.7 501.9,328.7 501.9,337 		"/>
		<polygon points="322.9,427.5 309,416.5 309,424.8 276.7,424.8 276.7,430.2 309,430.2 309,438.5 		"/>
		<polygon points="371.7,480.7 362.9,473.8 362.9,479 342.4,479 342.4,482.4 362.9,482.4 362.9,487.7 		"/>
		<polygon points="472.5,480.7 463.7,473.8 463.7,479 443.2,479 443.2,482.4 463.7,482.4 463.7,487.7 		"/>
		<polygon points="419.4,427.5 405.5,416.5 405.5,424.8 373.2,424.8 373.2,430.2 405.5,430.2 405.5,438.5 		"/>
		<polygon points="515.8,427.5 501.9,416.5 501.9,424.8 469.6,424.8 469.6,430.2 501.9,430.2 501.9,438.5 		"/>
	</g>
</g>
</svg>
