<?xml version="1.0" encoding="utf-8"?>
<!-- Generator: Adobe Illustrator 18.1.1, SVG Export Plug-In . SVG Version: 6.00 Build 0)  -->
<svg version="1.1" id="Layer_1" xmlns="http://www.w3.org/2000/svg" xmlns:xlink="http://www.w3.org/1999/xlink" x="0px" y="0px"
	 viewBox="0 0 792 612" enable-background="new 0 0 792 612" xml:space="preserve">
<g>
	<g>
		<path fill="#FFFFFF" d="M346.2,347.2v-15.6h8.5c1.9,0,2.8,1,2.8,2.9v4.1c0,1.8-0.9,2.7-2.8,2.7h-4.9v5.9H346.2z M354,336.1
			c0-0.4-0.2-0.6-0.6-0.6h-3.6v2.3h3.6c0.4,0,0.6-0.2,0.6-0.6V336.1z"/>
		<path fill="#FFFFFF" d="M362.2,347.2c-1.8,0-2.6-0.9-2.6-2.7v-1.8c0-1.9,0.9-2.8,2.6-2.8h4c0.2,0,0.5,0,0.7,0.1v-0.9
			c0-0.4-0.2-0.6-0.6-0.6H360v-3.4h7.6c1.9,0,2.9,0.9,2.9,2.8v6.4c0,1.9-0.9,2.8-2.8,2.8H362.2z M366.9,342.6c0-0.3-0.1-0.4-0.4-0.4
			h-3c-0.3,0-0.4,0.1-0.4,0.4v0.8c0,0.3,0.1,0.4,0.4,0.4h3c0.3,0,0.4-0.1,0.4-0.4V342.6z"/>
		<path fill="#FFFFFF" d="M373,347.2v-3.4h6.8c0.2,0,0.3-0.1,0.3-0.4v-0.7c0-0.2-0.1-0.3-0.3-0.3h-4.5c-0.9,0-1.6-0.2-1.9-0.6
			c-0.3-0.4-0.5-1.1-0.5-2v-1.8c0-1.9,0.9-2.8,2.8-2.8h7.8v3.4h-6.7c-0.2,0-0.3,0.1-0.3,0.4v0.7c0,0.2,0.1,0.3,0.3,0.3h4.5
			c1.7,0,2.5,0.9,2.5,2.6v1.9c0,1.9-0.9,2.8-2.5,2.8H373z"/>
		<path fill="#FFFFFF" d="M386.4,347.2v-3.4h6.8c0.2,0,0.3-0.1,0.3-0.4v-0.7c0-0.2-0.1-0.3-0.3-0.3h-4.5c-0.9,0-1.6-0.2-1.9-0.6
			c-0.3-0.4-0.5-1.1-0.5-2v-1.8c0-1.9,0.9-2.8,2.8-2.8h7.8v3.4H390c-0.2,0-0.3,0.1-0.3,0.4v0.7c0,0.2,0.1,0.3,0.3,0.3h4.5
			c1.7,0,2.5,0.9,2.5,2.6v1.9c0,1.9-0.9,2.8-2.5,2.8H386.4z"/>
		<path fill="#FFFFFF" d="M402.1,347.2c-1.8,0-2.6-0.9-2.6-2.7v-1.8c0-1.9,0.9-2.8,2.6-2.8h4c0.2,0,0.5,0,0.7,0.1v-0.9
			c0-0.4-0.2-0.6-0.6-0.6h-6.3v-3.4h7.6c1.9,0,2.9,0.9,2.9,2.8v6.4c0,1.9-0.9,2.8-2.8,2.8H402.1z M406.8,342.6
			c0-0.3-0.1-0.4-0.4-0.4h-3c-0.3,0-0.4,0.1-0.4,0.4v0.8c0,0.3,0.1,0.4,0.4,0.4h3c0.3,0,0.4-0.1,0.4-0.4V342.6z"/>
		<path fill="#FFFFFF" d="M413.3,351v-3.1h6.3c0.4,0,0.6-0.2,0.6-0.6v-1.4h-4.6c-1.9,0-2.8-0.9-2.8-2.8v-5.3c0-1.8,1-2.8,2.9-2.8
			h8.1v13c0,1.9-0.9,2.9-2.8,2.9H413.3z M420.2,338.6H417c-0.4,0-0.6,0.2-0.6,0.7v2.9c0,0.4,0.2,0.6,0.6,0.6h3.2V338.6z"/>
		<path fill="#FFFFFF" d="M429.2,347.2c-1.9,0-2.9-0.9-2.9-2.8v-6.4c0-1.9,0.9-2.8,2.8-2.8h5.5c1.8,0,2.6,0.9,2.6,2.8v1.8
			c0,1.9-0.9,2.8-2.6,2.8h-4.1c-0.2,0-0.5,0-0.6-0.1v0.9c0,0.4,0.2,0.6,0.6,0.6h6.2v3.4H429.2z M433.7,338.8c0-0.3-0.1-0.4-0.4-0.4
			h-3c-0.3,0-0.4,0.1-0.4,0.4v0.8c0,0.3,0.1,0.4,0.4,0.4h3c0.3,0,0.4-0.1,0.4-0.4V338.8z"/>
		<path fill="#FFFFFF" d="M439.7,347.2v-9.2c0-0.9,0.2-1.7,0.7-2.1s1.2-0.7,2.2-0.7h4v3.6h-2.6c-0.4,0-0.6,0.2-0.6,0.6v7.9H439.7z"
			/>
	</g>
</g>
<g>
	<path fill="#FFFFFF" d="M432.8,286.5c-0.3-0.1-0.7-0.2-1-0.4c0.6-2.1,0.6-4-0.5-5.8c-1.1-1.8-2.8-2.7-4.8-3.1
		c0.3-2.2,0-4.2-1.4-5.9c-1.4-1.7-3.4-2.3-5.5-2.3c0-0.4-0.1-0.7-0.1-1c-0.4-3.6-3.4-6.2-6.9-5.7c-1.3,0.2-2.7,0.8-3.8,1.7
		c-4,3.2-7.8,6.5-11.7,9.8c-2.1,1.7-4.1,3.5-6.2,5.2c-2.4-3.2-4.5-6.5-7-9.5c-1.7-2-3.6-3.9-5.8-5.4c-4.6-3-9.6-2.3-13.5,1.6
		c-0.8,0.8-0.8,1.6-0.2,2.4c0.3,0.4,0.7,0.8,1,1.2c4,4.8,8.5,9.1,10.6,15.2c1.4,4.1,2.2,8.3,0,12.5c-0.4,0.9-0.4,1.6,0.4,2.1
		c0.9,0.6,1.7,0.2,2.2-0.7c0.5-1.1,1.1-2.3,1.3-3.5c1.3-7-1.2-13.1-4.9-18.8c-2.1-3.2-4.9-6-7.5-9c1.8-1.5,3.8-2.3,6-1.8
		c3.4,0.7,5.9,2.9,7.9,5.6c2.6,3.4,5.1,6.9,7.6,10.4c1.5,2,2.9,4,3.2,6.6c0.1,0.5,1,1.2,1.5,1.2c0.5,0,1.3-0.9,1.3-1.4
		c0-1.1-0.3-2.2-0.6-3.2c-0.4-1.1-1.1-2.2-1.7-3.4c1.3-1.1,2.5-2.1,3.8-3.1c0.9,3.4,2.9,5.2,6.2,5.6c-0.1,4.8,1.6,6.7,6.5,7.8
		c0.1,4.5,1.8,6.6,6.2,7.4c-0.3,3.4,1,5.8,4.3,7.4c-5.3,4.3-10.9,7.7-17.2,9.9c-2.3,0.8-4.4,2-6.5,3.1c-0.8,0.4-1.5,1.2-0.8,2.2
		c0.7,1,1.5,0.8,2.5,0.2c1.5-0.9,3-1.7,4.7-2.3c5.2-1.7,10.2-3.8,14.4-7.2c6.2-4.9,12.4-9.9,18.4-15.1
		C438.6,294,437.3,288.1,432.8,286.5z M402.8,280.9c-1.5-0.2-2.7-1.1-3.3-2.4c-0.5-1.3-0.2-2.7,0.8-3.6c3.5-3,7-6,10.6-8.9
		c1.5-1.3,3.6-1,4.8,0.4c1.3,1.5,1.1,3.5-0.5,4.9c-3.4,2.8-6.7,5.7-10.1,8.5C404.5,280.2,403.6,280.5,402.8,280.9z M409.3,288.4
		c-1.8,0-3.1-0.8-3.6-2.2c-0.6-1.4-0.3-2.8,0.9-3.9c2.8-2.5,5.7-4.9,8.6-7.3c0.9-0.8,1.8-1.6,2.7-2.3c1.6-1.2,3.6-1,4.8,0.4
		c1.2,1.5,1.1,3.5-0.4,4.8c-3.8,3.2-7.5,6.4-11.4,9.6C410.5,288,409.7,288.2,409.3,288.4z M415.4,295.9c-1.4-0.2-2.7-1-3.2-2.3
		c-0.5-1.4-0.4-2.7,0.7-3.7c3.6-3.1,7.2-6.1,10.8-9.1c1.5-1.2,3.6-0.8,4.7,0.5c1.2,1.5,1.1,3.5-0.4,4.8c-3.4,2.9-6.9,5.8-10.4,8.7
		C417,295.4,416.2,295.6,415.4,295.9z M432.7,295.1c-1.7,1.5-3.5,3-5.2,4.4c-1.2,1-2.4,2.1-3.7,3.1c-1.6,1.3-3.6,1.2-4.9-0.3
		c-1.3-1.5-1.1-3.5,0.5-4.9c3-2.6,6-5.1,9.1-7.6c0.6-0.5,1.4-0.7,2.2-1c1.5,0.2,2.7,1,3.2,2.3C434.3,292.5,434,294,432.7,295.1z"/>
</g>
</svg>
