<?xml version="1.0" encoding="utf-8"?>
<!-- Generator: Adobe Illustrator 18.1.1, SVG Export Plug-In . SVG Version: 6.00 Build 0)  -->
<svg version="1.1" id="Layer_1" xmlns="http://www.w3.org/2000/svg" xmlns:xlink="http://www.w3.org/1999/xlink" x="0px" y="0px"
	 viewBox="0 0 792 612" enable-background="new 0 0 792 612" xml:space="preserve">
<rect x="285" y="303.6" fill="#77E3BF" width="228" height="199.7"/>
<g>
	<defs>
		<rect id="SVGID_1_" x="285" y="303.6" width="228" height="199.7"/>
	</defs>
	<clipPath id="SVGID_2_">
		<use xlink:href="#SVGID_1_"  overflow="visible"/>
	</clipPath>
	<g clip-path="url(#SVGID_2_)">
		<polygon points="322.9,326.1 309,315.1 309,323.4 276.7,323.4 276.7,328.7 309,328.7 309,337 		"/>
		<polygon points="371.7,379.3 362.9,372.4 362.9,377.6 342.4,377.6 342.4,381 362.9,381 362.9,386.2 		"/>
		<polygon points="472.5,379.3 463.7,372.4 463.7,377.6 443.2,377.6 443.2,381 463.7,381 463.7,386.2 		"/>
		<polygon points="419.4,326.1 405.5,315.1 405.5,323.4 373.2,323.4 373.2,328.7 405.5,328.7 405.5,337 		"/>
		<polygon points="515.8,326.1 501.9,315.1 501.9,323.4 469.6,323.4 469.6,328.7 501.9,328.7 501.9,337 		"/>
		<polygon points="322.9,427.5 309,416.5 309,424.8 276.7,424.8 276.7,430.2 309,430.2 309,438.5 		"/>
		<polygon points="371.7,480.7 362.9,473.8 362.9,479 342.4,479 342.4,482.4 362.9,482.4 362.9,487.7 		"/>
		<polygon points="472.5,480.7 463.7,473.8 463.7,479 443.2,479 443.2,482.4 463.7,482.4 463.7,487.7 		"/>
		<polygon points="419.4,427.5 405.5,416.5 405.5,424.8 373.2,424.8 373.2,430.2 405.5,430.2 405.5,438.5 		"/>
		<polygon points="515.8,427.5 501.9,416.5 501.9,424.8 469.6,424.8 469.6,430.2 501.9,430.2 501.9,438.5 		"/>
	</g>
</g>
</svg>
